<?xml version="1.0" standalone="no"?>
<!DOCTYPE svg PUBLIC "-//W3C//DTD SVG 20010904//EN"
 "http://www.w3.org/TR/2001/REC-SVG-20010904/DTD/svg10.dtd">
<svg version="1.0" xmlns="http://www.w3.org/2000/sv width="32.000000pt" height="32.000000pt" viewBox="0 0 32.000000 32.000000"
 preserveAspectRatio="xMidYMid meet">

<g transform="translate(0.000000,32.000000) scale(0.100000,-0.100000)"
fill="#000000" stroke="none">
<path d="M100 233 c-17 -21 -20 -35 -15 -65 l7 -38 -36 0 -36 0 0 -49 0 -50
108 6 c102 5 108 7 140 36 17 17 32 35 32 39 0 18 -32 19 -51 2 -27 -25 -42
-2 -23 35 19 36 18 54 -7 85 -29 37 -89 37 -119 -1z m114 -5 c22 -31 20 -52
-6 -82 -22 -25 -24 -25 -63 -12 -50 18 -66 52 -41 90 22 35 87 37 110 4z m-39
-112 c39 -14 38 -19 -10 -29 -11 -3 -2 -5 21 -6 29 -1 46 5 59 19 18 20 45 27
45 12 0 -5 -13 -20 -28 -35 -26 -25 -35 -27 -105 -27 l-77 0 0 34 c0 48 25 56
95 32z m-105 -36 c0 -33 -3 -40 -20 -40 -17 0 -20 7 -20 40 0 33 3 40 20 40
17 0 20 -7 20 -40z"/>
<path d="M131 188 c0 -18 3 -27 6 -20 2 6 14 12 26 12 22 -1 22 -1 3 -15 -11
-8 -16 -15 -10 -15 21 1 36 19 32 41 -2 18 -10 25 -30 27 -26 3 -28 1 -27 -30z
m49 12 c0 -5 -9 -10 -20 -10 -11 0 -20 5 -20 10 0 6 9 10 20 10 11 0 20 -4 20
-10z"/>
-12 -28 -9 -14 4 -14 3 -3 -5 16 -12 51 1 51
18 0 14 -6 12 -20 -4z"/>
</g>
e
  </text>
</svg>
